
<svg xmlns="http://www.w3.org/2000/svg" version="1.1" xmlns:xlink="http://www.w3.org/1999/xlink" preserveAspectRatio="none" x="0px" y="0px" width="24px" height="24px" viewBox="0 0 24 24">
<defs>
<g id="Layer0_0_MEMBER_1_MEMBER_0_MEMBER_0_FILL">
<path fill="#121B36" stroke="none" d="
M 16.9 13.65
Q 16.45 13.65 16.25 14.1
L 14.1 18.35
Q 13.75 19 14.45 19.35
L 14.75 19.45
Q 15.2 19.45 15.45 19.05
L 16.9 16.1 18.35 19.05
Q 18.75 19.7 19.35 19.35 20.05 19.1 19.7 18.35
L 17.55 14.1
Q 17.35 13.65 16.9 13.65 Z"/>
</g>

<g id="Layer0_0_MEMBER_1_MEMBER_0_MEMBER_1_FILL">
<path fill="#121B36" stroke="none" d="
M 25.2 21.4
Q 24.95 21.2 24.7 21.2
L 21.55 21.2
Q 21.25 21.2 21.1 21.4 20.85 21.6 20.85 21.85 20.85 22.1 21.1 22.35 21.25 22.55 21.55 22.55
L 24.7 22.55
Q 25.35 22.55 25.35 21.85 25.35 21.6 25.2 21.4 Z"/>
</g>

<g id="Layer0_0_MEMBER_1_MEMBER_1_MEMBER_0_FILL">
<path fill="#121B36" stroke="none" d="
M 14.75 20.15
L 18.55 20.15
Q 19.25 20.15 19.25 19.4 19.25 18.7 18.55 18.7
L 14.75 18.7
Q 14.5 18.7 14.3 18.9 14.05 19.1 14.05 19.4 14.05 20.15 14.75 20.15 Z"/>
</g>

<g id="Layer0_0_MEMBER_1_MEMBER_1_MEMBER_1_FILL">
<path fill="#121B36" stroke="none" d="
M 16 19.4
Q 16 20.15 16.7 20.15 17.4 20.15 17.4 19.4
L 17.4 18.75
Q 17.4 18.5 17.2 18.3 16.95 18.05 16.7 18.05 16.4 18.05 16.2 18.3 16 18.5 16 18.75
L 16 19.4 Z"/>
</g>

<g id="Layer0_0_MEMBER_1_MEMBER_1_MEMBER_2_FILL">
<path fill="#121B36" stroke="none" d="
M 14.3 23.05
Q 14.5 23.25 14.75 23.25 16.2 23.25 17.3 22.15 18.3 20.95 18.3 19.4 18.3 19.1 18.1 18.9 17.9 18.7 17.6 18.7 17.35 18.7 17.15 18.9 16.9 19.1 16.9 19.4 16.9 20.4 16.3 21.1 15.65 21.8 14.75 21.8 14.05 21.8 14.05 22.55 14.05 22.8 14.3 23.05 Z"/>
</g>

<g id="Layer0_0_MEMBER_1_MEMBER_1_MEMBER_3_FILL">
<path fill="#121B36" stroke="none" d="
M 17.4 21.1
Q 17.25 20.85 16.95 20.8 16.7 20.75 16.45 20.95 15.9 21.4 16.3 22 17.25 23.25 18.6 23.25 18.85 23.25 19.1 23.05 19.3 22.8 19.3 22.55 19.3 22.25 19.1 22.05 18.85 21.8 18.6 21.8 17.95 21.8 17.4 21.1 Z"/>
</g>

<path id="Layer0_0_MEMBER_0_MEMBER_0_MEMBER_0_1_STROKES" stroke="#141B34" stroke-width="1.5" stroke-linejoin="round" stroke-linecap="round" fill="none" d="
M 11.9 25.1
Q 11.05 25.1 10.45 24.55 9.9 23.95 9.9 23.1 9.9 22.25 10.45 21.7 11.05 21.1 11.9 21.1"/>

<path id="Layer0_0_MEMBER_0_MEMBER_0_MEMBER_1_1_STROKES" stroke="#141B34" stroke-width="1.5" stroke-linejoin="round" stroke-linecap="round" fill="none" d="
M 20 15.5
Q 20.85 15.5 21.4 14.95 22 14.35 22 13.5 22 12.7 21.4 12.1 20.85 11.5 20 11.5"/>

<path id="Layer0_0_MEMBER_0_MEMBER_0_MEMBER_2_1_STROKES" stroke="#141B34" stroke-width="1.5" stroke-linejoin="round" stroke-linecap="butt" fill="none" d="
M 7 7
L 7 4"/>

<path id="Layer0_0_MEMBER_0_MEMBER_0_MEMBER_3_1_STROKES" stroke="#141B34" stroke-width="1.5" stroke-linejoin="round" stroke-linecap="butt" fill="none" d="
M 17 7
L 17 4"/>

<path id="Layer0_0_MEMBER_0_MEMBER_0_MEMBER_4_1_STROKES" stroke="#141B34" stroke-width="1.5" stroke-linejoin="round" stroke-linecap="butt" fill="none" d="
M 7 2
Q 7.4 2 7.7 2.3 8 2.6 8 3 8 4 7 4 6 4 6 3 6 2.6 6.3 2.3 6.55 2 7 2 Z"/>

<path id="Layer0_0_MEMBER_0_MEMBER_0_MEMBER_5_1_STROKES" stroke="#141B34" stroke-width="1.5" stroke-linejoin="round" stroke-linecap="butt" fill="none" d="
M 17 2
Q 17.4 2 17.7 2.3 18 2.6 18 3 18 4 17 4 16 4 16 3 16 2 17 2 Z"/>

<path id="Layer0_0_MEMBER_0_MEMBER_0_MEMBER_6_1_STROKES" stroke="#141B34" stroke-width="1.5" stroke-linejoin="round" stroke-linecap="butt" fill="none" d="
M 13.5 7
L 10.5 7
Q 8 7 7.2 7.1 5.95 7.3 5.35 7.95 4.75 8.55 4.6 9.85 4.5 10.7 4.5 13.25 4.5 15.8 4.6 16.65 4.75 17.9 5.35 18.55 5.95 19.15 7.2 19.35 8 19.45 10.5 19.45
L 11.5 19.45
Q 12.1 19.45 12.4 19.6 12.7 19.75 13.1 20.2 14.5 21.7 15.5 21.95 16.35 22.15 16.6 21.85 16.8 21.55 16.55 20.7 16.4 19.7 16.5 19.55 16.6 19.3 17.2 19.25 18.15 19 18.6 18.55 19.2 17.9 19.4 16.65 19.5 15.8 19.5 13.25 19.5 10.7 19.4 9.85 19.2 8.55 18.6 7.95 18 7.3 16.75 7.1 15.95 7 13.5 7 Z"/>

<path id="Layer0_0_MEMBER_0_MEMBER_0_MEMBER_7_1_STROKES" stroke="#141B34" stroke-width="1.5" stroke-linejoin="round" stroke-linecap="round" fill="none" d="
M 9.5 15
Q 10.35 16 12 16 13.6 16 14.5 15"/>
</defs>

<g transform="matrix( 1, 0, 0, 1, -7.9,-9.6) ">
<use xlink:href="#Layer0_0_MEMBER_0_MEMBER_0_MEMBER_0_1_STROKES"/>
</g>

<g transform="matrix( 1, 0, 0, 1, 0,0) ">
<use xlink:href="#Layer0_0_MEMBER_0_MEMBER_0_MEMBER_1_1_STROKES"/>
</g>

<g transform="matrix( 1, 0, 0, 1, 0,0) ">
<use xlink:href="#Layer0_0_MEMBER_0_MEMBER_0_MEMBER_2_1_STROKES"/>
</g>

<g transform="matrix( 1, 0, 0, 1, 0,0) ">
<use xlink:href="#Layer0_0_MEMBER_0_MEMBER_0_MEMBER_3_1_STROKES"/>
</g>

<g transform="matrix( 1, 0, 0, 1, 0,0) ">
<use xlink:href="#Layer0_0_MEMBER_0_MEMBER_0_MEMBER_4_1_STROKES"/>
</g>

<g transform="matrix( 1, 0, 0, 1, 0,0) ">
<use xlink:href="#Layer0_0_MEMBER_0_MEMBER_0_MEMBER_5_1_STROKES"/>
</g>

<g transform="matrix( 1, 0, 0, 1, 0,0) ">
<use xlink:href="#Layer0_0_MEMBER_0_MEMBER_0_MEMBER_6_1_STROKES"/>
</g>

<g transform="matrix( 1, 0, 0, 1, 0,0.7) ">
<use xlink:href="#Layer0_0_MEMBER_0_MEMBER_0_MEMBER_7_1_STROKES"/>
</g>

<g transform="matrix( 0.899993896484375, 0, 0, 0.899993896484375, 0,-3.1) ">
<use xlink:href="#Layer0_0_MEMBER_1_MEMBER_0_MEMBER_0_FILL"/>
</g>

<g transform="matrix( 1, 0, 0, 1, -7.9,-8.8) ">
<use xlink:href="#Layer0_0_MEMBER_1_MEMBER_0_MEMBER_1_FILL"/>
</g>

<g transform="matrix( 1, 0, 0, 1, -7.9,-8.8) ">
<use xlink:href="#Layer0_0_MEMBER_1_MEMBER_1_MEMBER_0_FILL"/>
</g>

<g transform="matrix( 1, 0, 0, 1, -7.9,-8.8) ">
<use xlink:href="#Layer0_0_MEMBER_1_MEMBER_1_MEMBER_1_FILL"/>
</g>

<g transform="matrix( 1, 0, 0, 1, -7.9,-8.8) ">
<use xlink:href="#Layer0_0_MEMBER_1_MEMBER_1_MEMBER_2_FILL"/>
</g>

<g transform="matrix( 1, 0, 0, 1, -7.9,-8.8) ">
<use xlink:href="#Layer0_0_MEMBER_1_MEMBER_1_MEMBER_3_FILL"/>
</g>
</svg>
