
<svg xmlns="http://www.w3.org/2000/svg" version="1.1" xmlns:xlink="http://www.w3.org/1999/xlink" preserveAspectRatio="none" x="0px" y="0px" width="24px" height="24px" viewBox="0 0 24 24">
<defs>
<g id="Layer0_0_FILL">
<path fill="#F9FAFF" stroke="none" d="
M 15.8 9.6
Q 15.6 9.2 15.2 9.2 14.8 9.2 14.6 9.6
L 12.7 13.4
Q 12.35 14 13 14.3
L 13.25 14.4
Q 13.7 14.4 13.9 14.05
L 14.05 13.75 16.35 13.75 16.5 14.05
Q 16.85 14.65 17.4 14.3 18.05 14.1 17.75 13.4
L 15.8 9.6
M 15.7 12.4
L 14.7 12.4 15.2 11.4 15.7 12.4
M 10.35 11.35
L 10.65 11.35
Q 11.35 11.35 11.35 10.6 11.35 9.9 10.65 9.9
L 9.5 9.9
Q 9.4796875 9.6796875 9.3 9.5 9.05 9.25 8.8 9.25 8.5 9.25 8.3 9.5 8.1203125 9.6796875 8.1 9.9
L 6.85 9.9
Q 6.6 9.9 6.4 10.1 6.15 10.3 6.15 10.6 6.15 11.35 6.85 11.35
L 8.9 11.35
Q 8.7712890625 11.8388671875 8.45 12.25
L 8.4 12.3
Q 7.75 13 6.85 13 6.15 13 6.15 13.75 6.15 14 6.4 14.25 6.6 14.45 6.85 14.45 7.994140625 14.45 8.9 13.75 9.7005859375 14.45 10.7 14.45 10.95 14.45 11.2 14.25 11.4 14 11.4 13.75 11.4 13.45 11.2 13.25 10.95 13 10.7 13 10.2603515625 13 9.85 12.65 10.222265625 12.05546875 10.35 11.35 Z"/>
</g>

<path id="Layer0_0_1_STROKES" stroke="#F9FAFF" stroke-width="1.5" stroke-linejoin="round" stroke-linecap="round" fill="none" d="
M 20 15.5
Q 20.85 15.5 21.4 14.95 22 14.35 22 13.5 22 12.7 21.4 12.1 20.85 11.5 20 11.5
M 4 15.5
Q 3.15 15.5 2.55 14.95 2 14.35 2 13.5 2 12.65 2.55 12.1 3.15 11.5 4 11.5
M 9.5 15.7
Q 10.35 16.7 12 16.7 13.6 16.7 14.5 15.7"/>

<path id="Layer0_0_2_STROKES" stroke="#F9FAFF" stroke-width="1.5" stroke-linejoin="round" stroke-linecap="butt" fill="none" d="
M 7 4
Q 6 4 6 3 6 2.6 6.3 2.3 6.55 2 7 2 7.4 2 7.7 2.3 8 2.6 8 3 8 4 7 4
L 7.025 7.125
Q 7.1111328125 7.1142578125 7.2 7.1 8 7 10.5 7
L 13.5 7
Q 15.95 7 16.75 7.1 16.8671875 7.11875 16.975 7.15
L 17 4
Q 16 4 16 3 16 2 17 2 17.4 2 17.7 2.3 18 2.6 18 3 18 4 17 4
M 7.025 7.125
Q 5.9072265625 7.3462890625 5.35 7.95 4.75 8.55 4.6 9.85 4.5 10.7 4.5 13.25 4.5 15.8 4.6 16.65 4.75 17.9 5.35 18.55 5.95 19.15 7.2 19.35 8 19.45 10.5 19.45
L 11.5 19.45
Q 12.1 19.45 12.4 19.6 12.7 19.75 13.1 20.2 14.5 21.7 15.5 21.95 16.35 22.15 16.6 21.85 16.8 21.55 16.55 20.7 16.4 19.7 16.5 19.55 16.6 19.3 17.2 19.25 18.15 19 18.6 18.55 19.2 17.9 19.4 16.65 19.5 15.8 19.5 13.25 19.5 10.7 19.4 9.85 19.2 8.55 18.6 7.95 18.05625 7.3609375 16.975 7.15"/>
</defs>

<g transform="matrix( 1, 0, 0, 1, 0,0) ">
<use xlink:href="#Layer0_0_FILL"/>

<use xlink:href="#Layer0_0_1_STROKES"/>

<use xlink:href="#Layer0_0_2_STROKES"/>
</g>
</svg>
